<svg width="380" height="148" viewBox="0 0 380 148" fill="none" xmlns="http://www.w3.org/2000/svg">
<path d="M106.36 5.85639C106.596 5.93236 106.603 6.00038 106.811 6.19966C106.793 6.44766 103.283 14.0245 102.724 15.5295C99.1401 25.1775 96.5378 35.1789 92.9605 44.8072C97.3373 43.6452 102.776 42.3795 106.699 40.0115C107.099 39.7694 108.785 38.2076 109.21 37.815L109.365 37.9628C108.271 42.0649 96.4421 45.165 92.44 46.3806C89.8011 55.0771 86.2118 64.8809 87.1799 73.9903C87.2909 75.0344 85.189 75.042 84.8404 74.7723C82.0425 72.6083 82.9845 66.0455 81.6852 63.0422C79.6838 58.4161 77.3863 56.1381 73.0782 54.0722C63.1153 70.3526 51.9449 83.8865 33.4353 90.1822C25.3704 92.6483 14.7245 94.2195 7.20637 89.4325C3.73604 87.2508 1.2788 83.7674 0.381838 79.7582C-0.810413 74.2771 0.905234 68.3262 3.91777 63.7228C10.6081 53.5 22.6525 45.8295 34.5296 43.3485C39.807 42.2463 47.2903 41.6494 51.9739 44.8484C54.6885 46.7025 55.699 48.7957 56.3203 51.9199C61.82 50.6672 68.1846 49.808 73.8284 48.8689C80.1291 37.3531 86.3157 25.3435 94.5292 15.0571C97.7746 10.9924 101.485 7.76503 106.36 5.85639ZM56.2981 53.2717C54.6978 66.7195 37.6964 77.0208 24.8965 75.9246C22.0215 75.6784 18.2087 73.5584 18.8669 70.2216C19.3715 67.1467 21.6501 64.7466 24.1076 62.9854C31.0625 58.1518 39.5537 55.6322 47.7183 53.7576C49.0382 53.4545 54.293 52.6355 54.8322 51.8215C54.9834 50.8593 54.6096 50.2424 54.2329 49.4047C52.1932 44.8703 47.5338 43.85 43.0437 43.7482C30.3342 44.1183 19.0252 50.3295 10.1725 59.2496C3.32977 66.1445 -1.95411 79.4702 6.45784 87.2866C10.3558 90.9081 16.1901 91.8608 21.3241 91.5326C36.0485 90.407 49.0378 82.0069 58.5475 71.1356C60.2956 69.1104 61.9665 67.0192 63.5563 64.8668C66.2398 61.1272 68.7817 57.2875 71.1765 53.3554C66.0575 51.8696 61.472 52.0528 56.2981 53.2717ZM72.4573 50.7094C71.4474 50.8521 69.2692 51.0868 68.4329 51.443C68.7391 51.7744 68.5635 51.6302 69.1059 51.7455L71.7461 52.4561L72.5765 51.0093L72.4573 50.7094ZM87.0012 47.6774C83.3299 48.5438 79.1013 49.5807 75.4061 50.1666L73.6014 53.2035C75.98 54.4851 77.812 55.5771 79.6584 57.6085C81.3929 59.6756 82.2962 61.0853 83.035 63.7148C83.9821 59.2023 85.3024 54.682 86.6236 50.2661C86.8553 49.4918 87.2988 48.5553 87.3034 47.7715L87.0012 47.6774ZM21.3251 73.5717C30.9824 78.204 49.5012 66.7253 53.5115 57.7037C53.9093 56.8092 54.8574 54.5157 54.7212 53.5945L54.5993 53.5018C48.0737 54.6527 20.0575 59.4205 19.768 71.1249C19.7486 71.914 20.6721 73.051 21.3251 73.5717ZM103.314 8.42153C92.5282 15.1444 82.8109 36.6025 76.5198 48.1484L76.7555 48.3701C80.5038 47.6856 84.2348 46.9086 87.9451 46.0401C91.6176 35.6049 95.6838 24.6876 100.228 14.6063C101.121 12.6268 102.512 10.5931 103.506 8.62319L103.314 8.42153Z" fill="#030303" fill-opacity="0.988235"/>
<path d="M260.629 38.323C268.318 38.0921 261.758 51.6288 260.034 54.6897C253.898 65.5903 245.886 75.3365 236.809 83.8935C236.302 85.6918 234.611 93.1097 237.497 93.8913C240.656 94.7445 243.565 88.7722 244.784 86.3717C243.123 83.5988 242.77 78.5029 246.744 77.9882C249.899 79.1152 244.443 86.1868 248.498 86.3499C253.768 85.8383 255.785 80.7146 258.423 76.356C259.818 74.047 267.105 66.2846 270.813 69.3024C273.57 71.5461 266.843 80.9286 264.39 77.2124C263.893 73.267 268.437 75.6939 268.819 73.942C269.263 69.0333 266.974 70.9246 264.416 72.3359C260.716 74.3752 255.414 87.7878 261.479 88.5495C267.852 89.349 277.549 77.5863 280.449 72.2072C281.604 70.0635 281.622 64.3224 283.564 62.6974C287.042 61.178 285.946 66.0385 285.639 67.1497C284.517 71.1987 283.118 74.7908 281.818 78.6322C284.872 74.049 292.997 61.2639 299.565 60.4912C301.965 60.2088 302.003 64.542 300.039 66.1923C298.162 66.6058 298.731 64.8693 297.102 64.2906C295.243 64.3282 293.834 65.633 292.504 66.81C291.297 67.8796 286.216 73.5546 286.18 74.8338C289.904 73.6327 291.368 80.2494 294.769 80.0953C301.022 79.2648 305.693 71.8836 308.945 67.017C310.395 64.8459 311.04 59.572 314.276 60.1199C316.64 62.4174 308.404 72.8545 311.822 74.825C316.767 74.7972 322.913 58.5625 325.39 57.5371C325.935 57.3113 326.313 57.4205 326.819 57.6646C328.039 59.6126 322.054 68.3851 323.763 71.39C326.88 76.8717 335.608 63.6472 337.4 61.2464C339.132 58.9081 339.223 55.144 341.633 53.4147C342.396 52.868 343.971 53.7962 343.823 54.7514C343.492 56.8748 338.036 66.568 340.923 68.0484C344.99 67.6204 351.187 54.7339 353.19 51.3943C353.702 50.5437 355.156 50.0338 356.056 50.5312C356.768 51.844 353.367 58.7009 352.862 60.6988C351.377 66.5546 353.825 73.2147 360.969 70.7924C368.936 68.0904 374.978 60.9815 378.355 53.4891C378.746 52.6246 378.894 50.8874 379.58 50.4258C381.231 52.7109 377.579 57.6659 376.136 59.7822C371.744 66.2142 357.709 78.091 350.469 69.2562C348.561 66.9273 348.894 62.8456 349.518 59.9302C347.846 62.8279 342.513 72.1229 338.464 71.462C335.059 70.9061 336.284 65.6434 336.89 63.2175C334.447 67.0596 327.659 76.9552 322.57 75.8236C321.67 75.6201 320.885 75.068 320.39 74.2878C319.191 72.3822 319.95 69.2685 320.485 67.2386C318.025 70.6356 315.566 75.3256 312.019 77.7189C311.281 78.1803 310.235 78.5377 309.371 78.2696C305.881 77.1863 307.357 72.3078 308.101 69.8851C304.288 75.2234 295.669 88.2591 288.221 81.281C287.04 80.1747 285.724 78.2581 284.739 76.9158C282.957 79.1236 278.697 88.8975 276.114 88.1736C274.86 86.5288 278.562 77.8408 279.325 75.5106C276.081 80.2777 272.565 84.3746 268.104 88.0264C261.639 92.883 253.254 93.8138 255.29 82.8635C252.957 86.0476 249.84 88.9989 245.684 87.1076C244.556 89.6135 238.496 101.109 233.47 96.3395C231.918 94.8698 232.382 90.2916 232.665 88.1636C231.221 90.23 227.822 94.0703 225.39 94.2453C221.331 94.5377 222.199 96.0412 219.657 98.8633C218.264 100.413 215.62 103.318 213.147 102.734C209.155 101.789 209.752 97.8848 210.42 94.842C201.517 109.941 189.813 111.158 198.228 90.8883C193.737 95.9358 190.491 107.192 183.247 109.521C179.614 110.689 179.274 106.882 178.796 106.455C178.063 106.787 176.182 108.875 175.411 109.571C172.811 111.884 169.117 114.545 165.435 114.316C160.385 114.002 160.429 109.682 160.781 105.935C160.12 106.584 159.424 107.568 158.722 108.302C157.192 109.903 155.658 111.24 153.459 111.798C152.995 111.985 151.34 111.814 151.078 112.131C149.038 114.583 145.427 120.977 141.505 120.209C137.562 119.437 138.176 115.255 138.81 112.216C137.502 114.016 136.103 115.746 134.619 117.403C132.285 119.974 128.415 124.055 124.642 124.191C122.388 124.272 120.906 123.49 120.898 121.038C120.878 115.509 126.196 111.788 126.835 106.536C126.891 106.083 126.545 105.788 126.274 105.514C122.4 104.525 117.685 114.867 115.461 117.345C113.618 119.398 112.976 120.328 110.366 121.758C110.007 122.289 106.784 122.403 106.776 122.415C104.859 125.738 97.2425 135.377 94.1589 128.059C92.0229 122.987 101.189 106.073 108.018 109.599C111.961 111.635 107.372 119.666 107.696 120.985C112.484 122.142 117.892 112.075 119.861 108.825C121.369 106.337 128.008 99.3188 130.65 103.799C133.164 108.063 123.243 116.44 125.559 120.611C128.677 123.319 137.159 113.043 138.938 110.514C141.702 106.584 145.469 97.4731 151.654 98.8394C156.857 99.991 151.639 109.177 152.439 110.681C152.676 110.734 152.828 110.82 153.056 110.75C161.027 108.29 162.369 98.8534 168.58 94.2215C169.945 93.1615 171.549 92.1054 173.279 91.7812C182.193 90.1047 173.576 103.525 170.124 100.244C169.711 99.3028 170.021 98.0817 170.932 97.5507C171.79 97.3697 172.197 97.5626 173.039 97.7933C175.197 97.1748 175.373 92.3182 171.883 94.0843C169.694 95.2795 167.636 97.3299 166.58 99.6111C158.853 116.261 173.38 113.107 179.553 103.082C180.389 101.725 181.416 100.299 183.211 101.033C184.66 102.769 182.04 105.367 183.854 106.787C190.068 107.005 197.449 84.0381 202.693 85.0377C205.124 87.3442 196.363 99.8239 199.9 102.7C203.148 103.404 208.569 96.3435 210.269 93.774C212.986 89.6731 215.218 84.1636 219.956 81.7909C220.959 81.2886 223.569 81.5925 224.274 81.9878C227.911 84.0309 223.46 91.4829 224.035 93.0779C224.552 93.3365 224.695 93.3703 225.269 93.1794C233.262 90.5283 233.912 81.9355 236.171 76.0173C239.613 67.0059 251.104 41.2638 260.629 38.323ZM237.085 82.5771L238.926 80.8017C246.623 72.9522 260.323 55.9447 261.037 44.099C261.082 43.3327 260.908 42.1353 260.258 41.5985C259.725 41.158 259.35 41.2137 258.669 41.2501C250.561 45.3426 241.891 67.2539 239.086 75.7834C238.337 78.0228 237.669 80.2888 237.085 82.5771ZM99.8803 127.76C102.599 126.418 103.936 124.336 105.515 121.782C102.789 118.781 103.049 115.671 104.59 112.19L104.414 112.041C100.859 114.863 98.3208 119.905 97.561 124.36C97.2618 126.116 97.8167 127.836 99.8803 127.76ZM223.236 82.9576C220.713 85.5645 220.144 89.6134 222.255 92.6483C223.202 90.5979 226.264 84.3074 223.236 82.9576ZM151.535 100.212C149.279 102.716 148.224 107.27 150.659 109.971C151.616 107.793 153.401 103.821 152.725 101.321C152.551 100.675 152.113 100.484 151.535 100.212ZM106.837 110.816C104.85 113.578 104.152 117.053 105.9 120.153L106.221 120.241L106.363 120.157C107.034 118.62 110.507 110.766 106.837 110.816ZM149.978 111.307C147.145 108.553 147.508 105.647 148.84 102.202C148.881 102.095 149.064 101.632 149.076 101.54C145.405 103.603 138.402 116.585 144.053 117.429C146.877 116.219 148.337 113.841 149.978 111.307ZM220.628 84.2384C217.074 86.8192 214.486 91.8687 213.701 96.1546C213.355 98.0539 213.682 99.9691 216.004 99.9214C218.656 98.4695 219.982 96.4509 221.615 93.9192C218.759 91.1528 219.058 87.6804 220.761 84.3915L220.628 84.2384Z" fill="#030303"/>
<path d="M266.162 15.286C268.096 15.2496 270.908 16.2558 271.467 18.2744C271.396 18.8995 271.411 18.8577 270.993 19.3267C269.477 18.0296 269.634 17.3214 267.266 17.023C265.333 16.7798 263.344 17.3301 261.578 18.0208C252.824 21.4256 247.981 29.3565 241.048 35.2242C237.525 38.207 232.132 39.2613 231.193 33.1563C230.945 31.5505 231.383 29.5311 231.653 27.9057C229.865 31.2667 227.352 34.8657 224.637 37.4913C222.451 39.6047 220.681 40.1855 218.707 37.6987C218.212 35.1292 218.482 33.7657 219.102 31.2697C218.174 32.6535 217.181 33.9926 216.125 35.2823C213.6 38.3936 205.261 47.729 199.926 43.6376C198.408 42.4736 198.13 39.3597 198.109 37.4398C196.04 40.3623 193.65 43.0412 190.982 45.4255C187.978 48.0881 181.289 52.6864 177.601 48.1987C176.232 46.5331 176.432 44.0479 176.747 42.015C174.252 46.3611 167.839 55.0358 161.786 54.2717C158.736 53.8866 156.32 50.1833 154.596 47.8238C152.654 50.8211 149.172 58.3264 146.488 59.3827C146.022 59.3496 146.216 59.4513 145.873 59.1217C145.162 57.085 148.106 49.6436 148.979 47.3539C145.859 51.8032 142.787 55.9586 138.307 59.1569C132.75 63.1234 127.283 62.9056 127.324 54.7555C125.23 57.9008 116.822 70.0583 112.903 63.645C111.119 60.7261 114.251 53.1854 115.37 50.0839C113.952 52.0309 112.976 54.0459 111.595 56.1815C108.875 60.3862 105.238 68.2387 99.758 69.0822C95.8678 69.681 95.0021 63.6007 97.3951 61.3895C98.2778 60.5739 99.7521 59.7526 100.729 60.9643C101.077 62.72 99.7493 64.6412 100.905 65.9506C107.111 67.9122 115 41.2767 120.136 44.8166C121.442 47.8236 113.79 58.9397 117.08 61.9985C119.209 63.9779 126.36 55.1169 127.103 53.2826C129.164 48.1915 131.565 42.1699 137.291 40.2668C137.784 40.1063 138.864 40.1147 139.225 40.5452C141.17 42.8654 138.63 46.2658 137.285 48.0297C136.231 49.3993 131.205 54.1456 131.101 55.1189C131.016 55.9098 131.668 57.2535 132.188 57.8354C132.703 58.4109 133.363 58.6908 134.132 58.6822C140.112 58.6168 148.353 47.6054 150.556 42.7524C151.64 40.3653 151.405 35.8825 153.409 34.1459C153.796 33.8098 154.24 33.6507 154.757 33.7358C155.23 33.814 155.637 34.093 155.865 34.516C156.901 36.4464 152.608 47.2139 151.778 49.6191C155.758 44.1929 158.901 38.4582 164.192 34.058C165.468 32.9984 167.541 31.2602 169.277 31.401C172.028 31.5579 171.545 36.1455 169.82 37.1015C168.425 37.8747 167.553 34.205 165.476 35.3682C163.185 36.651 156.788 43.2671 156.061 45.5075L156.263 45.7085C156.582 45.698 157.668 45.6515 157.912 45.795C160.082 47.0726 161.213 49.8762 163.699 50.8104C168.114 52.4708 174.452 44.3898 176.406 41.2853C177.821 38.6837 179.024 35.9605 180.788 33.5604C182.583 31.1144 188.156 26.0579 191.529 27.3747C192.034 27.5672 192.439 27.9606 192.647 28.4618C193.891 31.5319 189.064 37.8695 186.127 36.1518C185.524 35.2835 185.615 34.1783 186.333 33.4142C187.286 33.0574 187.902 33.3504 189.036 33.3289C190.205 32.5384 190.748 30.8984 189.89 29.6819C185.391 26.9592 178.8 40.4625 180.368 44.3802C181.465 47.125 182.89 47.6522 185.518 46.7521C190.721 44.9715 195.138 40.3098 198.097 35.8519C198.741 33.7997 200.126 31.7987 200.786 29.8969C201.809 26.9497 210.073 19.3716 210.596 25.5782C210.877 28.9104 204.71 34.9096 201.896 37.5446C202.088 39.1314 202.806 41.683 204.809 41.5376C211.416 40.9812 216.983 33.129 220.253 27.9896C221.629 25.8276 221.962 20.3352 225.469 21.0503C228.062 23.2076 219.403 33.5916 223.186 35.684C227.852 35.4352 234.401 19.2622 236.988 17.8422C237.774 17.8474 237.751 17.8134 238.407 18.2131C238.985 19.1477 238.583 20.1468 238.119 21.0726C236.912 23.4904 234.306 29.3983 234.833 32.0708C236.742 41.729 247.461 27.6863 250.303 25.0052C254.972 20.6037 259.34 16.3033 266.162 15.286ZM131.699 52.4911C132.895 51.0075 138.362 44.7173 136.15 43.2253L135.523 43.1995C133.376 44.9383 130.655 50.1789 131.199 52.802L131.428 52.8027L131.699 52.4911ZM202.449 35.589C203.687 34.0232 208.957 27.85 206.924 26.1772L206.49 26.1027C203.842 27.9813 201.945 32.5374 202.025 35.7141L202.227 35.8109L202.449 35.589Z" fill="#030303"/>
<path d="M112.851 76.001C113.164 76.1704 113.023 76.0857 113.241 76.4699C113.147 77.6539 111.636 79.4784 110.777 80.2818C102.59 87.9449 89.3143 87.0161 79.0387 86.8749C72.8434 93.0004 69.3297 104.317 66.5974 112.417C72.6478 108.491 86.1984 102.73 89.4832 113.737C91.7226 121.241 86.2677 129.745 80.8873 134.488C76.9182 137.987 65.1348 143.997 62.6149 135.781C62.0458 133.027 63.3109 129.703 64.7888 127.508C67.8802 122.914 71.8481 120.173 77.1665 119.053C76.4039 119.541 74.719 120.491 73.8955 120.826C69.4012 122.649 61.7049 131.338 64.8116 136.541C65.3607 137.464 66.2644 138.12 67.31 138.353C75.0293 140.131 83.8372 127.605 84.7508 120.732C86.8666 104.82 75.3369 107.827 66.1748 114.36C65.0426 117.095 64.2967 120.052 63.1924 123.031C59.3911 133.309 52.4303 146.057 40.6659 147.976C39.7119 148.132 36.6623 147.503 36.1521 146.586L36.3541 146.165C37.5107 145.496 38.9413 147.406 41.5006 146.688C46.3632 145.319 49.5991 141.038 52.1508 137.014C55.4137 131.619 57.6408 125.439 59.8265 119.547C58.6373 120.776 57.6321 122.198 56.7129 123.132L56.4083 122.971L56.2863 122.514C56.9664 119.942 59.8868 118.481 60.7857 116.154C64.8633 105.593 68.5558 94.2195 77.8633 86.8809C74.5212 86.8371 71.2481 86.8828 67.88 87.1414C53.4961 88.2392 37.3997 95.8324 32.9131 110.603C31.7547 114.416 32.0389 119.704 36.7562 120.78C40.6352 121.665 44.8051 119.147 47.6951 116.776C52.0402 113.163 55.7181 108.441 57.8703 103.193C58.9615 100.532 59.5075 97.7516 60.2284 94.9911C61.5582 105.45 52.4267 119.59 42.4305 121.963C28.631 125.239 30.025 111.13 35.2112 103.328C45.7617 87.4556 62.7949 82.7124 80.6903 82.6764C90.001 82.6577 107.358 84.9072 112.851 76.001Z" fill="#030303"/>
<path d="M362.265 32.4415L362.408 33.0135C361.124 36.8757 354.322 44.212 349.857 44.6334C347.128 44.891 346.643 43.0012 346.641 40.8541C347.164 39.5264 347.639 38.2804 349.167 38.0054C350.713 38.5493 349.223 40.3098 350.652 41.724C354.584 43.2218 360.204 35.093 362.265 32.4415Z" fill="#030303" fill-opacity="0.988235"/>
<path d="M244.384 0C244.782 0.150949 244.635 0.01929 244.834 0.389006C243.468 4.07383 236.883 11.6239 232.533 12.0517C229.992 12.3017 229.056 10.9813 228.987 8.68007C229.332 7.34659 229.984 5.55767 231.571 5.51471C233.331 6.63579 231.498 7.08905 232.616 8.98695C236.355 11.385 242.63 2.64012 244.384 0Z" fill="#030303" fill-opacity="0.988235"/>
</svg>
